<svg width="806" height="569" viewBox="0 0 806 569" fill="none" xmlns="http://www.w3.org/2000/svg">
<rect x="805.209" y="568" width="805" height="568" rx="20" transform="rotate(-180 805.209 568)" fill="url(#paint0_linear_319_106)"/>
<mask id="mask0_319_106" style="mask-type:alpha" maskUnits="userSpaceOnUse" x="0" y="54" width="216" height="515">
<rect x="215.209" y="568.032" width="215.209" height="513.504" rx="20" transform="rotate(-180 215.209 568.032)" fill="url(#paint1_linear_319_106)"/>
</mask>
<g mask="url(#mask0_319_106)">
<path d="M-84.8617 436.492C-95.5345 426.339 -90.5948 408.904 -76.8095 403.711C131.037 325.404 219.814 97.7125 281.481 359.228C371.569 741.173 41.8824 557.073 -84.8617 436.492Z" fill="url(#paint2_linear_319_106)"/>
<path d="M-107.036 413.502C94.91 624.003 -192.106 1040.27 354.273 633.068C885.689 237.03 -25.7061 512.333 -107.036 413.502Z" fill="url(#paint3_linear_319_106)"/>
</g>
<defs>
<linearGradient id="paint0_linear_319_106" x1="1207.71" y1="568" x2="1207.71" y2="1165.07" gradientUnits="userSpaceOnUse">
<stop stop-color="#FF00B1"/>
<stop offset="1" stop-color="#875BFF"/>
</linearGradient>
<linearGradient id="paint1_linear_319_106" x1="322.813" y1="568.032" x2="322.813" y2="1107.82" gradientUnits="userSpaceOnUse">
<stop stop-color="#FF00B1"/>
<stop offset="1" stop-color="#875BFF"/>
</linearGradient>
<linearGradient id="paint2_linear_319_106" x1="386.186" y1="-572.361" x2="-100.927" y2="1153.58" gradientUnits="userSpaceOnUse">
<stop offset="0.39" stop-color="#EF009F"/>
<stop offset="0.45" stop-color="#EC009E"/>
<stop offset="0.48" stop-color="#E3019B"/>
<stop offset="0.51" stop-color="#D40296"/>
<stop offset="0.54" stop-color="#BE0490"/>
<stop offset="0.57" stop-color="#A20788"/>
<stop offset="0.6" stop-color="#800A7D"/>
<stop offset="0.62" stop-color="#570D71"/>
<stop offset="0.64" stop-color="#291263"/>
<stop offset="0.66" stop-color="#001657"/>
</linearGradient>
<linearGradient id="paint3_linear_319_106" x1="1154.11" y1="711.113" x2="397.564" y2="1967.75" gradientUnits="userSpaceOnUse">
<stop stop-color="#FC00AF"/>
<stop offset="0.2" stop-color="#FC00AF"/>
<stop offset="0.25" stop-color="#F600AD"/>
<stop offset="0.3" stop-color="#E502AA"/>
<stop offset="0.37" stop-color="#CB06A4"/>
<stop offset="0.44" stop-color="#A50B9B"/>
<stop offset="0.51" stop-color="#751291"/>
<stop offset="0.59" stop-color="#3B1984"/>
<stop offset="0.66" stop-color="#002277"/>
</linearGradient>
</defs>
</svg>
